<?xml version="1.0" encoding="UTF-8" standalone="no"?>
<!-- Created with Inkscape (http://www.inkscape.org/) -->

<svg
   xmlns:dc="http://purl.org/dc/elements/1.1/"
   xmlns:cc="http://creativecommons.org/ns#"
   xmlns:rdf="http://www.w3.org/1999/02/22-rdf-syntax-ns#"
   xmlns:svg="http://www.w3.org/2000/svg"
   xmlns="http://www.w3.org/2000/svg"
   version="1.1"
   width="200.44772"
   height="144.69025"
   id="svg2"
   xml:space="preserve"><metadata
     id="metadata8"><rdf:RDF><cc:Work
         rdf:about=""><dc:format>image/svg+xml</dc:format><dc:type
           rdf:resource="http://purl.org/dc/dcmitype/StillImage" /><dc:title></dc:title></cc:Work></rdf:RDF></metadata><defs
     id="defs6"><clipPath
       id="clipPath20"><path
         d="M 0,0 310,0 310,236 0,236 0,0 z"
         id="path22" /></clipPath><clipPath
       id="clipPath24"><path
         d="m 0,-0.2 309.7,0 0,236.2 L 0,236 0,-0.2 z"
         id="path26" /></clipPath><clipPath
       id="clipPath270"><path
         d="M 0,0 612,0 612,518 0,518 0,0 z"
         id="path272" /></clipPath><clipPath
       id="clipPath318"><path
         d="M 0,0 600,0 600,280 0,280 0,0 z"
         id="path320" /></clipPath><clipPath
       id="clipPath346"><path
         d="M 0,0 400,0 400,425 0,425 0,0 z"
         id="path348" /></clipPath></defs><rect
     width="1"
     height="1"
     x="81.98851"
     y="53.951099"
     id="start"
     style="fill:#000000;fill-opacity:1;stroke:none" /><rect
     width="1"
     height="1"
     x="192.25674"
     y="69.311638"
     id="end"
     style="fill:#000000;fill-opacity:1;stroke:none" /><g
     id="maze"><path
       d="m 0.5,0.6668273 199.44772,0 0,143.5234227 -199.44772,0 z"
       id="rect3010"
       style="fill:none;stroke:#000000;stroke-width:1" /><path
       d="m 156.30115,79.877823 0,-46.822505"
       id="path3012"
       style="fill:none;stroke:#000000;stroke-width:1px;stroke-linecap:butt;stroke-linejoin:miter;stroke-opacity:1" /><path
       d="m 185.47213,33.219805 0,60.079482"
       id="path3236"
       style="fill:none;stroke:#000000;stroke-width:0.99999988px;stroke-linecap:butt;stroke-linejoin:miter;stroke-opacity:1" /><path
       d="m 170.56908,51.087612 0,59.336438"
       id="path3013"
       style="fill:none;stroke:#000000;stroke-width:1px;stroke-linecap:butt;stroke-linejoin:miter;stroke-opacity:1" /><path
       d="m 170.0478,110.80878 29.7812,0"
       id="path3025"
       style="fill:none;stroke:#000000;stroke-width:1px;stroke-linecap:butt;stroke-linejoin:miter;stroke-opacity:1" /><path
       d="m 155.83945,32.699369 44.26148,0.322769"
       id="path3027"
       style="fill:none;stroke:#000000;stroke-width:1px;stroke-linecap:butt;stroke-linejoin:miter;stroke-opacity:1" /><path
       d="M 95.631808,64.01242 42.668516,143.70936"
       id="path3077"
       style="fill:none;stroke:#000000;stroke-width:0.99999994px;stroke-linecap:butt;stroke-linejoin:miter;stroke-opacity:1" /><path
       d="m 113.29227,96.626861 0,46.837279"
       id="path3079"
       style="fill:none;stroke:#000000;stroke-width:1px;stroke-linecap:butt;stroke-linejoin:miter;stroke-opacity:1" /><path
       d="m 113.04705,109.86881 -27.464796,0"
       id="path3081"
       style="fill:none;stroke:#000000;stroke-width:1px;stroke-linecap:butt;stroke-linejoin:miter;stroke-opacity:1" /><path
       d="M 113.29227,129.73174 141.73794,98.588631"
       id="path3083"
       style="fill:none;stroke:#000000;stroke-width:1px;stroke-linecap:butt;stroke-linejoin:miter;stroke-opacity:1" /><path
       d="M 64.247996,62.29587 0.49044271,66.709855"
       id="path3085"
       style="fill:none;stroke:#000000;stroke-width:1px;stroke-linecap:butt;stroke-linejoin:miter;stroke-opacity:1" /><path
       d="M 90.24146,0.50008841 87.053582,40.961612"
       id="path3087"
       style="fill:none;stroke:#000000;stroke-width:1px;stroke-linecap:butt;stroke-linejoin:miter;stroke-opacity:1" /><path
       d="M 23.050808,64.502863 55.174805,23.550896"
       id="path3089"
       style="fill:none;stroke:#000000;stroke-width:1px;stroke-linecap:butt;stroke-linejoin:miter;stroke-opacity:1" /><path
       d="M 62.776668,113.30191 C 61.550561,113.05669 33.840547,92.94854 33.840547,92.94854"
       id="path3091"
       style="fill:none;stroke:#000000;stroke-width:1px;stroke-linecap:butt;stroke-linejoin:miter;stroke-opacity:1" /><path
       d="M 89.015353,22.079568 122.12023,20.485629"
       id="path3093"
       style="fill:none;stroke:#000000;stroke-width:1px;stroke-linecap:butt;stroke-linejoin:miter;stroke-opacity:1" /></g></svg>